<?xml version="1.0" encoding="UTF-8" standalone="no"?>
<svg
   xmlns:dc="http://purl.org/dc/elements/1.1/"
   xmlns:cc="http://creativecommons.org/ns#"
   xmlns:rdf="http://www.w3.org/1999/02/22-rdf-syntax-ns#"
   xmlns:svg="http://www.w3.org/2000/svg"
   xmlns="http://www.w3.org/2000/svg"
   xmlns:sodipodi="http://sodipodi.sourceforge.net/DTD/sodipodi-0.dtd"
   xmlns:inkscape="http://www.inkscape.org/namespaces/inkscape"
   version="1.1"
   id="svg855"
   xml:space="preserve"
   width="816"
   height="1056"
   viewBox="0 0 816 1056"
   sodipodi:docname="Watchdog architecture.svg"
   inkscape:version="1.0.2-2 (e86c870879, 2021-01-15)"><metadata
     id="metadata861"><rdf:RDF><cc:Work
         rdf:about=""><dc:format>image/svg+xml</dc:format><dc:type
           rdf:resource="http://purl.org/dc/dcmitype/StillImage" /><dc:title></dc:title></cc:Work></rdf:RDF></metadata><defs
     id="defs859"><clipPath
       clipPathUnits="userSpaceOnUse"
       id="clipPath871"><path
         d="M 9.12e-6,0 H 612.00001 V 792 H 9.12e-6 Z"
         clip-rule="evenodd"
         id="path869" /></clipPath><clipPath
       clipPathUnits="userSpaceOnUse"
       id="clipPath883"><path
         d="M 9.12e-6,0 H 612.00001 V 792 H 9.12e-6 Z"
         clip-rule="evenodd"
         id="path881" /></clipPath><clipPath
       clipPathUnits="userSpaceOnUse"
       id="clipPath895"><path
         d="M 9.12e-6,0 H 612.00001 V 792 H 9.12e-6 Z"
         clip-rule="evenodd"
         id="path893" /></clipPath><clipPath
       clipPathUnits="userSpaceOnUse"
       id="clipPath907"><path
         d="M 9.12e-6,0 H 612.00001 V 792 H 9.12e-6 Z"
         clip-rule="evenodd"
         id="path905" /></clipPath><clipPath
       clipPathUnits="userSpaceOnUse"
       id="clipPath919"><path
         d="M 9.12e-6,0 H 612.00001 V 792 H 9.12e-6 Z"
         clip-rule="evenodd"
         id="path917" /></clipPath><clipPath
       clipPathUnits="userSpaceOnUse"
       id="clipPath929"><path
         d="M 9.12e-6,0 H 612.00001 V 792 H 9.12e-6 Z"
         clip-rule="evenodd"
         id="path927" /></clipPath><clipPath
       clipPathUnits="userSpaceOnUse"
       id="clipPath937"><path
         d="M 9.12e-6,0 H 612.00001 V 792 H 9.12e-6 Z"
         clip-rule="evenodd"
         id="path935" /></clipPath><clipPath
       clipPathUnits="userSpaceOnUse"
       id="clipPath945"><path
         d="M 9.12e-6,0 H 612.00001 V 792 H 9.12e-6 Z"
         clip-rule="evenodd"
         id="path943" /></clipPath><clipPath
       clipPathUnits="userSpaceOnUse"
       id="clipPath953"><path
         d="M 9.12e-6,0 H 612.00001 V 792 H 9.12e-6 Z"
         clip-rule="evenodd"
         id="path951" /></clipPath><clipPath
       clipPathUnits="userSpaceOnUse"
       id="clipPath961"><path
         d="M 9.12e-6,0 H 612.00001 V 792 H 9.12e-6 Z"
         clip-rule="evenodd"
         id="path959" /></clipPath><clipPath
       clipPathUnits="userSpaceOnUse"
       id="clipPath969"><path
         d="M 9.12e-6,0 H 612.00001 V 792 H 9.12e-6 Z"
         clip-rule="evenodd"
         id="path967" /></clipPath><clipPath
       clipPathUnits="userSpaceOnUse"
       id="clipPath977"><path
         d="M 9.12e-6,0 H 612.00001 V 792 H 9.12e-6 Z"
         clip-rule="evenodd"
         id="path975" /></clipPath><clipPath
       clipPathUnits="userSpaceOnUse"
       id="clipPath985"><path
         d="M 9.12e-6,0 H 612.00001 V 792 H 9.12e-6 Z"
         clip-rule="evenodd"
         id="path983" /></clipPath><clipPath
       clipPathUnits="userSpaceOnUse"
       id="clipPath997"><path
         d="M 9.12e-6,0 H 612.00001 V 792 H 9.12e-6 Z"
         clip-rule="evenodd"
         id="path995" /></clipPath><clipPath
       clipPathUnits="userSpaceOnUse"
       id="clipPath1005"><path
         d="M 9.12e-6,0 H 612.00001 V 792 H 9.12e-6 Z"
         clip-rule="evenodd"
         id="path1003" /></clipPath><clipPath
       clipPathUnits="userSpaceOnUse"
       id="clipPath1017"><path
         d="M 9.12e-6,0 H 612.00001 V 792 H 9.12e-6 Z"
         clip-rule="evenodd"
         id="path1015" /></clipPath><clipPath
       clipPathUnits="userSpaceOnUse"
       id="clipPath1029"><path
         d="M 9.12e-6,0 H 612.00001 V 792 H 9.12e-6 Z"
         clip-rule="evenodd"
         id="path1027" /></clipPath><clipPath
       clipPathUnits="userSpaceOnUse"
       id="clipPath1041"><path
         d="M 9.12e-6,0 H 612.00001 V 792 H 9.12e-6 Z"
         clip-rule="evenodd"
         id="path1039" /></clipPath><clipPath
       clipPathUnits="userSpaceOnUse"
       id="clipPath1049"><path
         d="M 9.12e-6,0 H 612.00001 V 792 H 9.12e-6 Z"
         clip-rule="evenodd"
         id="path1047" /></clipPath><clipPath
       clipPathUnits="userSpaceOnUse"
       id="clipPath1061"><path
         d="M 9.12e-6,0 H 612.00001 V 792 H 9.12e-6 Z"
         clip-rule="evenodd"
         id="path1059" /></clipPath><clipPath
       clipPathUnits="userSpaceOnUse"
       id="clipPath1069"><path
         d="M 9.12e-6,0 H 612.00001 V 792 H 9.12e-6 Z"
         clip-rule="evenodd"
         id="path1067" /></clipPath><clipPath
       clipPathUnits="userSpaceOnUse"
       id="clipPath1081"><path
         d="M 9.12e-6,0 H 612.00001 V 792 H 9.12e-6 Z"
         clip-rule="evenodd"
         id="path1079" /></clipPath><clipPath
       clipPathUnits="userSpaceOnUse"
       id="clipPath1093"><path
         d="M 9.12e-6,0 H 612.00001 V 792 H 9.12e-6 Z"
         clip-rule="evenodd"
         id="path1091" /></clipPath><clipPath
       clipPathUnits="userSpaceOnUse"
       id="clipPath1105"><path
         d="M 9.12e-6,0 H 612.00001 V 792 H 9.12e-6 Z"
         clip-rule="evenodd"
         id="path1103" /></clipPath><clipPath
       clipPathUnits="userSpaceOnUse"
       id="clipPath1117"><path
         d="M 9.12e-6,0 H 612.00001 V 792 H 9.12e-6 Z"
         clip-rule="evenodd"
         id="path1115" /></clipPath><clipPath
       clipPathUnits="userSpaceOnUse"
       id="clipPath1129"><path
         d="M 9.12e-6,0 H 612.00001 V 792 H 9.12e-6 Z"
         clip-rule="evenodd"
         id="path1127" /></clipPath><clipPath
       clipPathUnits="userSpaceOnUse"
       id="clipPath1137"><path
         d="M 9.12e-6,0 H 612.00001 V 792 H 9.12e-6 Z"
         clip-rule="evenodd"
         id="path1135" /></clipPath><clipPath
       clipPathUnits="userSpaceOnUse"
       id="clipPath1149"><path
         d="M 9.12e-6,0 H 612.00001 V 792 H 9.12e-6 Z"
         clip-rule="evenodd"
         id="path1147" /></clipPath><clipPath
       clipPathUnits="userSpaceOnUse"
       id="clipPath1157"><path
         d="M 9.12e-6,0 H 612.00001 V 792 H 9.12e-6 Z"
         clip-rule="evenodd"
         id="path1155" /></clipPath><clipPath
       clipPathUnits="userSpaceOnUse"
       id="clipPath1169"><path
         d="M 9.12e-6,0 H 612.00001 V 792 H 9.12e-6 Z"
         clip-rule="evenodd"
         id="path1167" /></clipPath><clipPath
       clipPathUnits="userSpaceOnUse"
       id="clipPath1181"><path
         d="M 9.12e-6,0 H 612.00001 V 792 H 9.12e-6 Z"
         clip-rule="evenodd"
         id="path1179" /></clipPath><clipPath
       clipPathUnits="userSpaceOnUse"
       id="clipPath1193"><path
         d="M 9.12e-6,0 H 612.00001 V 792 H 9.12e-6 Z"
         clip-rule="evenodd"
         id="path1191" /></clipPath><clipPath
       clipPathUnits="userSpaceOnUse"
       id="clipPath1201"><path
         d="M 9.12e-6,0 H 612.00001 V 792 H 9.12e-6 Z"
         clip-rule="evenodd"
         id="path1199" /></clipPath><clipPath
       clipPathUnits="userSpaceOnUse"
       id="clipPath1213"><path
         d="m 456.1,560.14 h 74.88 v 56.88 H 456.1 Z"
         clip-rule="evenodd"
         id="path1211" /></clipPath><clipPath
       clipPathUnits="userSpaceOnUse"
       id="clipPath1221"><path
         d="m 456.1,560.14 h 74.88 v 56.88 H 456.1 Z"
         clip-rule="evenodd"
         id="path1219" /></clipPath><clipPath
       clipPathUnits="userSpaceOnUse"
       id="clipPath1233"><path
         d="m 456.1,560.14 h 74.88 v 56.88 H 456.1 Z"
         clip-rule="evenodd"
         id="path1231" /></clipPath><clipPath
       clipPathUnits="userSpaceOnUse"
       id="clipPath1241"><path
         d="m 456.1,560.14 h 74.88 v 56.88 H 456.1 Z"
         clip-rule="evenodd"
         id="path1239" /></clipPath><clipPath
       clipPathUnits="userSpaceOnUse"
       id="clipPath1253"><path
         d="m 456.1,560.14 h 74.88 v 56.88 H 456.1 Z"
         clip-rule="evenodd"
         id="path1251" /></clipPath><clipPath
       clipPathUnits="userSpaceOnUse"
       id="clipPath1265"><path
         d="m 456.1,560.14 h 74.88 v 56.88 H 456.1 Z"
         clip-rule="evenodd"
         id="path1263" /></clipPath><clipPath
       clipPathUnits="userSpaceOnUse"
       id="clipPath1277"><path
         d="m 456.1,560.14 h 74.88 v 56.88 H 456.1 Z"
         clip-rule="evenodd"
         id="path1275" /></clipPath><clipPath
       clipPathUnits="userSpaceOnUse"
       id="clipPath1289"><path
         d="m 254.81,562.18 h 129.38 v 56.76 H 254.81 Z"
         clip-rule="evenodd"
         id="path1287" /></clipPath><clipPath
       clipPathUnits="userSpaceOnUse"
       id="clipPath1297"><path
         d="m 254.81,562.18 h 129.38 v 56.76 H 254.81 Z"
         clip-rule="evenodd"
         id="path1295" /></clipPath><clipPath
       clipPathUnits="userSpaceOnUse"
       id="clipPath1309"><path
         d="m 254.81,562.18 h 129.38 v 56.76 H 254.81 Z"
         clip-rule="evenodd"
         id="path1307" /></clipPath><clipPath
       clipPathUnits="userSpaceOnUse"
       id="clipPath1317"><path
         d="m 254.81,562.18 h 129.38 v 56.76 H 254.81 Z"
         clip-rule="evenodd"
         id="path1315" /></clipPath><clipPath
       clipPathUnits="userSpaceOnUse"
       id="clipPath1329"><path
         d="m 254.81,562.18 h 129.38 v 56.76 H 254.81 Z"
         clip-rule="evenodd"
         id="path1327" /></clipPath><clipPath
       clipPathUnits="userSpaceOnUse"
       id="clipPath1341"><path
         d="m 388.15,602.38 h 63.984 v 13.2 H 388.15 Z"
         clip-rule="evenodd"
         id="path1339" /></clipPath><clipPath
       clipPathUnits="userSpaceOnUse"
       id="clipPath1349"><path
         d="m 388.15,602.38 h 63.984 v 13.2 H 388.15 Z"
         clip-rule="evenodd"
         id="path1347" /></clipPath><clipPath
       clipPathUnits="userSpaceOnUse"
       id="clipPath1361"><path
         d="m 388.15,602.38 h 63.984 v 13.2 H 388.15 Z"
         clip-rule="evenodd"
         id="path1359" /></clipPath><clipPath
       clipPathUnits="userSpaceOnUse"
       id="clipPath1373"><path
         d="m 388.15,561.94 h 63.984 v 13.92 H 388.15 Z"
         clip-rule="evenodd"
         id="path1371" /></clipPath><clipPath
       clipPathUnits="userSpaceOnUse"
       id="clipPath1381"><path
         d="m 388.15,561.94 h 63.984 v 13.92 H 388.15 Z"
         clip-rule="evenodd"
         id="path1379" /></clipPath><clipPath
       clipPathUnits="userSpaceOnUse"
       id="clipPath1393"><path
         d="m 388.15,561.94 h 63.984 v 13.92 H 388.15 Z"
         clip-rule="evenodd"
         id="path1391" /></clipPath><clipPath
       clipPathUnits="userSpaceOnUse"
       id="clipPath1405"><path
         d="m 388.15,561.94 h 63.984 v 13.92 H 388.15 Z"
         clip-rule="evenodd"
         id="path1403" /></clipPath><clipPath
       clipPathUnits="userSpaceOnUse"
       id="clipPath1417"><path
         d="m 388.15,561.94 h 63.984 v 13.92 H 388.15 Z"
         clip-rule="evenodd"
         id="path1415" /></clipPath><clipPath
       clipPathUnits="userSpaceOnUse"
       id="clipPath1433"><path
         d="m 454.3,668.5 h 78.96 v 18.12 H 454.3 Z"
         clip-rule="evenodd"
         id="path1431" /></clipPath><clipPath
       clipPathUnits="userSpaceOnUse"
       id="clipPath1441"><path
         d="m 454.3,668.5 h 78.96 v 18.12 H 454.3 Z"
         clip-rule="evenodd"
         id="path1439" /></clipPath><clipPath
       clipPathUnits="userSpaceOnUse"
       id="clipPath1453"><path
         d="m 454.3,668.5 h 78.96 v 18.12 H 454.3 Z"
         clip-rule="evenodd"
         id="path1451" /></clipPath><clipPath
       clipPathUnits="userSpaceOnUse"
       id="clipPath1465"><path
         d="m 280.25,669.1 h 78.984 v 18.24 H 280.25 Z"
         clip-rule="evenodd"
         id="path1463" /></clipPath><clipPath
       clipPathUnits="userSpaceOnUse"
       id="clipPath1473"><path
         d="m 280.25,669.1 h 78.984 v 18.24 H 280.25 Z"
         clip-rule="evenodd"
         id="path1471" /></clipPath><clipPath
       clipPathUnits="userSpaceOnUse"
       id="clipPath1485"><path
         d="m 280.25,669.1 h 78.984 v 18.24 H 280.25 Z"
         clip-rule="evenodd"
         id="path1483" /></clipPath></defs><sodipodi:namedview
     pagecolor="#ffffff"
     bordercolor="#666666"
     borderopacity="1"
     objecttolerance="10"
     gridtolerance="10"
     guidetolerance="10"
     inkscape:pageopacity="0"
     inkscape:pageshadow="2"
     inkscape:window-width="2880"
     inkscape:window-height="1526"
     id="namedview857"
     showgrid="false"
     inkscape:zoom="0.75757576"
     inkscape:cx="408"
     inkscape:cy="528"
     inkscape:window-x="-11"
     inkscape:window-y="-11"
     inkscape:window-maximized="1"
     inkscape:current-layer="g863" /><g
     id="g863"
     inkscape:groupmode="layer"
     inkscape:label="Watchdog architecture"
     transform="matrix(1.3333333,0,0,-1.3333333,0,1056)"><g
       id="g865"><g
         id="g867"
         clip-path="url(#clipPath871)"><text
           transform="matrix(1,0,0,-1,72.024,706.66)"
           style="font-variant:normal;font-weight:bold;font-size:14.04px;font-family:Calibri;-inkscape-font-specification:Calibri-Bold;writing-mode:lr-tb;fill:#000000;fill-opacity:1;fill-rule:nonzero;stroke:none"
           id="text875"><tspan
             x="0"
             y="0"
             id="tspan873">S</tspan></text></g></g><g
       id="g877"><g
         id="g879"
         clip-path="url(#clipPath883)"><text
           transform="matrix(1,0,0,-1,78.624,706.66)"
           style="font-variant:normal;font-weight:bold;font-size:14.04px;font-family:Calibri;-inkscape-font-specification:Calibri-Bold;writing-mode:lr-tb;fill:#000000;fill-opacity:1;fill-rule:nonzero;stroke:none"
           id="text887"><tspan
             x="0"
             y="0"
             id="tspan885">i</tspan></text></g></g><g
       id="g889"><g
         id="g891"
         clip-path="url(#clipPath895)"><text
           transform="matrix(1,0,0,-1,82.104,706.66)"
           style="font-variant:normal;font-weight:bold;font-size:14.04px;font-family:Calibri;-inkscape-font-specification:Calibri-Bold;writing-mode:lr-tb;fill:#000000;fill-opacity:1;fill-rule:nonzero;stroke:none"
           id="text899"><tspan
             x="0"
             y="0"
             id="tspan897">m</tspan></text></g></g><g
       id="g901"><g
         id="g903"
         clip-path="url(#clipPath907)"><text
           transform="matrix(1,0,0,-1,93.504,706.66)"
           style="font-variant:normal;font-weight:bold;font-size:14.04px;font-family:Calibri;-inkscape-font-specification:Calibri-Bold;writing-mode:lr-tb;fill:#000000;fill-opacity:1;fill-rule:nonzero;stroke:none"
           id="text911"><tspan
             x="0 7.5394802 11.0214 18.083521 21.256559 33.822361 40.758121 45.686161 51.442558 58.98204 66.521523 74.004837 80.715958 83.83284 92.34108 97.269119 103.13784 110.67732 114.17328 118.97496 126.03708 131.90581 136.73557 144.27504 149.21712"
             y="0"
             sodipodi:role="line"
             id="tspan909">ple Watchdog Architecture</tspan></text></g></g><g
       id="g913"><g
         id="g915"
         clip-path="url(#clipPath919)" /></g><path
       d="m 72.024,704.14 h 177.74 v 0.96 H 72.024 Z"
       style="fill:#000000;fill-opacity:1;fill-rule:evenodd;stroke:none"
       id="path921" /><g
       id="g923"><g
         id="g925"
         clip-path="url(#clipPath929)" /></g><g
       id="g931"><g
         id="g933"
         clip-path="url(#clipPath937)" /></g><g
       id="g939"><g
         id="g941"
         clip-path="url(#clipPath945)" /></g><g
       id="g947"><g
         id="g949"
         clip-path="url(#clipPath953)" /></g><g
       id="g955"><g
         id="g957"
         clip-path="url(#clipPath961)" /></g><g
       id="g963"><g
         id="g965"
         clip-path="url(#clipPath969)" /></g><g
       id="g971"><g
         id="g973"
         clip-path="url(#clipPath977)" /></g><g
       id="g979"><g
         id="g981"
         clip-path="url(#clipPath985)"><text
           transform="matrix(1,0,0,-1,72.024,525.67)"
           style="font-variant:normal;font-weight:normal;font-size:11.04px;font-family:Calibri;-inkscape-font-specification:Calibri;writing-mode:lr-tb;fill:#000000;fill-opacity:1;fill-rule:nonzero;stroke:none"
           id="text989"><tspan
             x="0 5.8843198 11.74656 15.59952"
             y="0"
             sodipodi:role="line"
             id="tspan987">Core</tspan></text></g></g><g
       id="g991"><g
         id="g993"
         clip-path="url(#clipPath997)" /></g><g
       id="g999"><g
         id="g1001"
         clip-path="url(#clipPath1005)"><text
           transform="matrix(1,0,0,-1,95.544,525.67)"
           style="font-variant:normal;font-weight:normal;font-size:11.04px;font-family:Calibri;-inkscape-font-specification:Calibri;writing-mode:lr-tb;fill:#000000;fill-opacity:1;fill-rule:nonzero;stroke:none"
           id="text1009"><tspan
             x="0"
             y="0"
             id="tspan1007">w</tspan></text></g></g><g
       id="g1011"><g
         id="g1013"
         clip-path="url(#clipPath1017)"><text
           transform="matrix(1,0,0,-1,103.46,525.67)"
           style="font-variant:normal;font-weight:normal;font-size:11.04px;font-family:Calibri;-inkscape-font-specification:Calibri;writing-mode:lr-tb;fill:#000000;fill-opacity:1;fill-rule:nonzero;stroke:none"
           id="text1021"><tspan
             x="0 5.2881598 8.8761597 13.54608 19.342079 25.07184 30.94512 36.1008 38.59584 41.963039 47.759041 53.49984 58.169762 61.86816 64.296959 70.170242 75.933121 81.221283 83.760483 86.255524 89.854561"
             y="0"
             sodipodi:role="line"
             id="tspan1019">atchdog functionality</tspan></text></g></g><g
       id="g1023"><g
         id="g1025"
         clip-path="url(#clipPath1029)"><text
           transform="matrix(1,0,0,-1,198.41,525.67)"
           style="font-variant:normal;font-weight:normal;font-size:11.04px;font-family:Calibri;-inkscape-font-specification:Calibri;writing-mode:lr-tb;fill:#000000;fill-opacity:1;fill-rule:nonzero;stroke:none"
           id="text1033"><tspan
             x="0"
             y="0"
             id="tspan1031">:</tspan></text></g></g><g
       id="g1035"><g
         id="g1037"
         clip-path="url(#clipPath1041)" /></g><g
       id="g1043"><g
         id="g1045"
         clip-path="url(#clipPath1049)"><text
           transform="matrix(1,0,0,-1,90.024,503.11)"
           style="font-variant:normal;font-weight:normal;font-size:11.04px;font-family:Calibri;-inkscape-font-specification:Calibri;writing-mode:lr-tb;fill:#000000;fill-opacity:1;fill-rule:nonzero;stroke:none"
           id="text1053"><tspan
             x="0 5.6399798"
             y="0"
             sodipodi:role="line"
             id="tspan1051">1.</tspan></text></g></g><g
       id="g1055"><g
         id="g1057"
         clip-path="url(#clipPath1061)" /></g><g
       id="g1063"><g
         id="g1065"
         clip-path="url(#clipPath1069)"><text
           transform="matrix(1,0,0,-1,108.02,503.11)"
           style="font-variant:normal;font-weight:normal;font-size:11.04px;font-family:Calibri;-inkscape-font-specification:Calibri;writing-mode:lr-tb;fill:#000000;fill-opacity:1;fill-rule:nonzero;stroke:none"
           id="text1073"><tspan
             x="0 9.8255997 15.11376 18.81216 23.50416 29.26704 35.029919 40.903198 45.948479 48.44352 53.853119 56.248798 65.113922 70.611839 74.464798 76.981918 79.521118 83.705276 86.200317 90.781921 96.655197 102.41808 105.78528 108.32448 113.45808 119.22096 123.07392 128.57184 134.36784 136.86288 140.56128 146.34624"
             y="0"
             sodipodi:role="line"
             id="tspan1071">Watchdog Timer is configured to </tspan></text></g></g><g
       id="g1075"><g
         id="g1077"
         clip-path="url(#clipPath1081)"><text
           transform="matrix(1,0,0,-1,256.97,503.11)"
           style="font-variant:normal;font-weight:normal;font-size:11.04px;font-family:Calibri;-inkscape-font-specification:Calibri;writing-mode:lr-tb;fill:#000000;fill-opacity:1;fill-rule:nonzero;stroke:none"
           id="text1085"><tspan
             x="0 5.7628798 11.2608 15.11376 17.520479 23.393761 29.156639 31.695841 36.365761 41.653919 44.16 46.6992 51.700321"
             y="0"
             sodipodi:role="line"
             id="tspan1083">periodically </tspan></text></g></g><g
       id="g1087"><g
         id="g1089"
         clip-path="url(#clipPath1093)"><text
           transform="matrix(1,0,0,-1,311.09,503.11)"
           style="font-variant:normal;font-weight:normal;font-size:11.04px;font-family:Calibri;-inkscape-font-specification:Calibri;writing-mode:lr-tb;fill:#000000;fill-opacity:1;fill-rule:nonzero;stroke:none"
           id="text1097"><tspan
             x="0 8.7547197 14.628 20.390881 22.93008 26.50704 32.380322 36.1008 40.417439 42.912479 46.655041 52.417919 57.91584 60.444 66.206879 71.605438 76.639679 79.178879 83.716316"
             y="0"
             sodipodi:role="line"
             id="tspan1095">monitors the device</tspan></text></g></g><g
       id="g1099"><g
         id="g1101"
         clip-path="url(#clipPath1105)"><text
           transform="matrix(1,0,0,-1,400.39,503.11)"
           style="font-variant:normal;font-weight:normal;font-size:11.04px;font-family:Calibri;-inkscape-font-specification:Calibri;writing-mode:lr-tb;fill:#000000;fill-opacity:1;fill-rule:nonzero;stroke:none"
           id="text1109"><tspan
             x="0"
             y="0"
             id="tspan1107">’</tspan></text></g></g><g
       id="g1111"><g
         id="g1113"
         clip-path="url(#clipPath1117)"><text
           transform="matrix(1,0,0,-1,403.15,503.11)"
           style="font-variant:normal;font-weight:normal;font-size:11.04px;font-family:Calibri;-inkscape-font-specification:Calibri;writing-mode:lr-tb;fill:#000000;fill-opacity:1;fill-rule:nonzero;stroke:none"
           id="text1121"><tspan
             x="0 4.3166399 6.8116798 12.60768 18.1056 23.28336 27.13632 30.834721 36.630718 42.128639 47.416801 51.004799 53.49984 57.816479 60.355679 65.400963 71.163841 76.452003 78.991203 81.729118"
             y="0"
             sodipodi:role="line"
             id="tspan1119">s heartbeat signal. </tspan></text></g></g><g
       id="g1123"><g
         id="g1125"
         clip-path="url(#clipPath1129)" /></g><g
       id="g1131"><g
         id="g1133"
         clip-path="url(#clipPath1137)"><text
           transform="matrix(1,0,0,-1,90.024,488.71)"
           style="font-variant:normal;font-weight:normal;font-size:11.04px;font-family:Calibri;-inkscape-font-specification:Calibri;writing-mode:lr-tb;fill:#000000;fill-opacity:1;fill-rule:nonzero;stroke:none"
           id="text1141"><tspan
             x="0 5.6399798"
             y="0"
             sodipodi:role="line"
             id="tspan1139">2.</tspan></text></g></g><g
       id="g1143"><g
         id="g1145"
         clip-path="url(#clipPath1149)" /></g><g
       id="g1151"><g
         id="g1153"
         clip-path="url(#clipPath1157)"><text
           transform="matrix(1,0,0,-1,108.02,488.71)"
           style="font-variant:normal;font-weight:normal;font-size:11.04px;font-family:Calibri;-inkscape-font-specification:Calibri;writing-mode:lr-tb;fill:#000000;fill-opacity:1;fill-rule:nonzero;stroke:none"
           id="text1161"><tspan
             x="0 2.7820799 6.1492801 8.6443195 12.34272 18.13872 23.636641 26.13168 31.927679 37.425598 42.71376 46.445278 50.143681 55.939678 61.437599 66.725761 70.324799 72.819839 77.136482 79.675682 84.875519 90.605278 95.89344 98.43264 100.92768 103.46688 107.78352 110.27856 115.92 121.68288 125.38128 127.90944 131.76241 137.26031 141.83089 147.3288 149.868 154.79184 160.28976 166.08575 168.5808 176.49648 179.03568 182.73409 188.49696 191.03616 196.77696 199.17264 202.87103 208.66704 214.16496 216.66 222.45599 226.30896 231.80688 237.44832 242.84688 246.21408 248.75328 254.48305 259.98096 265.77695 268.272 271.9704 274.50961 283.28641"
             y="0"
             sodipodi:role="line"
             id="tspan1159">If the heartbeat signal is not received within the predefined time</tspan></text></g></g><g
       id="g1163"><g
         id="g1165"
         clip-path="url(#clipPath1169)"><text
           transform="matrix(1,0,0,-1,396.91,488.71)"
           style="font-variant:normal;font-weight:normal;font-size:11.04px;font-family:Calibri;-inkscape-font-specification:Calibri;writing-mode:lr-tb;fill:#000000;fill-opacity:1;fill-rule:nonzero;stroke:none"
           id="text1173"><tspan
             x="0 5.87328 11.51472 15.21312 17.74128 20.280479 26.02128 29.719681 35.250721 38.971199 44.00544 49.293598 51.832802 54.5928 56.9664 60.664799 66.4608 71.958717 74.36544 80.128319 85.626244 90.682564 93.221764 97.891678 103.2792 105.77424 110.09088 115.88688 121.17504 123.68112 126.22032 128.71536 134.51135 140.00928"
             y="0"
             sodipodi:role="line"
             id="tspan1171">out interval, the device shall be </tspan></text></g></g><g
       id="g1175"><g
         id="g1177"
         clip-path="url(#clipPath1181)"><text
           transform="matrix(1,0,0,-1,108.02,474.19)"
           style="font-variant:normal;font-weight:normal;font-size:11.04px;font-family:Calibri;-inkscape-font-specification:Calibri;writing-mode:lr-tb;fill:#000000;fill-opacity:1;fill-rule:nonzero;stroke:none"
           id="text1185"><tspan
             x="0 3.8529601 9.3508797 13.66752 19.187519 22.88592"
             y="0"
             sodipodi:role="line"
             id="tspan1183">reset.</tspan></text></g></g><g
       id="g1187"><g
         id="g1189"
         clip-path="url(#clipPath1193)" /></g><g
       id="g1195"><g
         id="g1197"
         clip-path="url(#clipPath1201)" /></g><path
       d="m 452.05,612.6 c 0,6.63 5.37,12 12,12 h 58.85 c 6.63,0 12,-5.37 12,-12 v -48 c 0,-6.63 -5.37,-12 -12,-12 h -58.85 c -6.63,0 -12,5.37 -12,12 z"
       style="fill:#4472c4;fill-opacity:1;fill-rule:evenodd;stroke:none"
       id="path1203" /><path
       d="m 452.05,612.6 c 0,6.63 5.37,12 12,12 h 58.85 c 6.63,0 12,-5.37 12,-12 v -48 c 0,-6.63 -5.37,-12 -12,-12 h -58.85 c -6.63,0 -12,5.37 -12,12 z"
       style="fill:none;stroke:#2f528f;stroke-width:1;stroke-linecap:butt;stroke-linejoin:miter;stroke-miterlimit:10;stroke-dasharray:none;stroke-opacity:1"
       id="path1205" /><g
       id="g1207"><g
         id="g1209"
         clip-path="url(#clipPath1213)"><g
           id="g1215"><g
             id="g1217"
             clip-path="url(#clipPath1221)"><text
               transform="matrix(1,0,0,-1,465.82,596.62)"
               style="font-variant:normal;font-weight:normal;font-size:11.04px;font-family:Calibri;-inkscape-font-specification:Calibri;writing-mode:lr-tb;fill:#ffffff;fill-opacity:1;fill-rule:nonzero;stroke:none"
               id="text1225"><tspan
                 x="0 6.8337598 12.23232 17.26656 19.805759 24.475679"
                 y="0"
                 sodipodi:role="line"
                 id="tspan1223">Device</tspan></text></g></g><g
           id="g1227"><g
             id="g1229"
             clip-path="url(#clipPath1233)" /></g><g
           id="g1235"><g
             id="g1237"
             clip-path="url(#clipPath1241)"><text
               transform="matrix(1,0,0,-1,498.22,596.62)"
               style="font-variant:normal;font-weight:normal;font-size:11.04px;font-family:Calibri;-inkscape-font-specification:Calibri;writing-mode:lr-tb;fill:#ffffff;fill-opacity:1;fill-rule:nonzero;stroke:none"
               id="text1245"><tspan
                 x="0 5.8843198 11.62512 18.58032 22.88592"
                 y="0"
                 sodipodi:role="line"
                 id="tspan1243">CPU/ </tspan></text></g></g><g
           id="g1247"><g
             id="g1249"
             clip-path="url(#clipPath1253)"><text
               transform="matrix(1,0,0,-1,468.1,582.1)"
               style="font-variant:normal;font-weight:normal;font-size:11.04px;font-family:Calibri;-inkscape-font-specification:Calibri;writing-mode:lr-tb;fill:#ffffff;fill-opacity:1;fill-rule:nonzero;stroke:none"
               id="text1257"><tspan
                 x="0 5.7600002"
                 y="0"
                 sodipodi:role="line"
                 id="tspan1255">uC</tspan></text></g></g><g
           id="g1259"><g
             id="g1261"
             clip-path="url(#clipPath1265)"><text
               transform="matrix(1,0,0,-1,479.74,582.1)"
               style="font-variant:normal;font-weight:normal;font-size:11.04px;font-family:Calibri;-inkscape-font-specification:Calibri;writing-mode:lr-tb;fill:#ffffff;fill-opacity:1;fill-rule:nonzero;stroke:none"
               id="text1269"><tspan
                 x="0 5.87328 11.63616 15.33456 19.187519 25.060801 27.6 29.98464 35.482559"
                 y="0"
                 sodipodi:role="line"
                 id="tspan1267">ontroller</tspan></text></g></g><g
           id="g1271"><g
             id="g1273"
             clip-path="url(#clipPath1277)" /></g></g></g><path
       d="m 250.8,614.55 c 0,6.63 5.37,12 12,12 h 113.3 c 6.63,0 12,-5.37 12,-12 v -48 c 0,-6.63 -5.37,-12 -12,-12 H 262.8 c -6.63,0 -12,5.37 -12,12 z"
       style="fill:#4472c4;fill-opacity:1;fill-rule:evenodd;stroke:none"
       id="path1279" /><path
       d="m 250.8,614.55 c 0,6.63 5.37,12 12,12 h 113.3 c 6.63,0 12,-5.37 12,-12 v -48 c 0,-6.63 -5.37,-12 -12,-12 H 262.8 c -6.63,0 -12,5.37 -12,12 z"
       style="fill:none;stroke:#2f528f;stroke-width:1;stroke-linecap:butt;stroke-linejoin:miter;stroke-miterlimit:10;stroke-dasharray:none;stroke-opacity:1"
       id="path1281" /><g
       id="g1283"><g
         id="g1285"
         clip-path="url(#clipPath1289)"><g
           id="g1291"><g
             id="g1293"
             clip-path="url(#clipPath1297)"><text
               transform="matrix(1,0,0,-1,282.17,591.34)"
               style="font-variant:normal;font-weight:normal;font-size:11.04px;font-family:Calibri;-inkscape-font-specification:Calibri;writing-mode:lr-tb;fill:#ffffff;fill-opacity:1;fill-rule:nonzero;stroke:none"
               id="text1301"><tspan
                 x="0 9.8255997 15.11376 18.81216 23.50416 29.26704 35.029919 40.903198"
                 y="0"
                 sodipodi:role="line"
                 id="tspan1299">Watchdog</tspan></text></g></g><g
           id="g1303"><g
             id="g1305"
             clip-path="url(#clipPath1309)" /></g><g
           id="g1311"><g
             id="g1313"
             clip-path="url(#clipPath1317)"><text
               transform="matrix(1,0,0,-1,330.67,591.34)"
               style="font-variant:normal;font-weight:normal;font-size:11.04px;font-family:Calibri;-inkscape-font-specification:Calibri;writing-mode:lr-tb;fill:#ffffff;fill-opacity:1;fill-rule:nonzero;stroke:none"
               id="text1321"><tspan
                 x="0 5.3764801 7.8052802 16.670401 22.16832"
                 y="0"
                 sodipodi:role="line"
                 id="tspan1319">Timer</tspan></text></g></g><g
           id="g1323"><g
             id="g1325"
             clip-path="url(#clipPath1329)" /></g></g></g><path
       d="m 387.8,598.6 h 64.45 v 20.9 H 387.8 Z"
       style="fill:#ffffff;fill-opacity:1;fill-rule:evenodd;stroke:none"
       id="path1331" /><path
       d="m 387.8,598.6 h 64.45 v 20.9 H 387.8 Z"
       style="fill:none;stroke:#000000;stroke-width:0.5;stroke-linecap:butt;stroke-linejoin:round;stroke-miterlimit:10;stroke-dasharray:none;stroke-opacity:1"
       id="path1333" /><g
       id="g1335"><g
         id="g1337"
         clip-path="url(#clipPath1341)"><g
           id="g1343"><g
             id="g1345"
             clip-path="url(#clipPath1349)"><text
               transform="matrix(1,0,0,-1,407.59,605.14)"
               style="font-variant:normal;font-weight:normal;font-size:11.04px;font-family:Calibri;-inkscape-font-specification:Calibri;writing-mode:lr-tb;fill:#000000;fill-opacity:1;fill-rule:nonzero;stroke:none"
               id="text1353"><tspan
                 x="0 5.99472 11.49264 15.80928 21.35136"
                 y="0"
                 sodipodi:role="line"
                 id="tspan1351">Reset</tspan></text></g></g><g
           id="g1355"><g
             id="g1357"
             clip-path="url(#clipPath1361)" /></g></g></g><path
       d="m 387.8,558.15 h 64.45 v 21.6 H 387.8 Z"
       style="fill:#ffffff;fill-opacity:1;fill-rule:evenodd;stroke:none"
       id="path1363" /><path
       d="m 387.8,558.15 h 64.45 v 21.6 H 387.8 Z"
       style="fill:none;stroke:#000000;stroke-width:0.5;stroke-linecap:butt;stroke-linejoin:round;stroke-miterlimit:10;stroke-dasharray:none;stroke-opacity:1"
       id="path1365" /><g
       id="g1367"><g
         id="g1369"
         clip-path="url(#clipPath1373)"><g
           id="g1375"><g
             id="g1377"
             clip-path="url(#clipPath1381)"><text
               transform="matrix(1,0,0,-1,397.39,565.42)"
               style="font-variant:normal;font-weight:normal;font-size:11.04px;font-family:Calibri;-inkscape-font-specification:Calibri;writing-mode:lr-tb;fill:#000000;fill-opacity:1;fill-rule:nonzero;stroke:none"
               id="text1385"><tspan
                 x="0 6.8448 12.34272 17.63088 21.483841 25.18224"
                 y="0"
                 sodipodi:role="line"
                 id="tspan1383">Heartb</tspan></text></g></g><g
           id="g1387"><g
             id="g1389"
             clip-path="url(#clipPath1393)"><text
               transform="matrix(1,0,0,-1,428.35,565.42)"
               style="font-variant:normal;font-weight:normal;font-size:11.04px;font-family:Calibri;-inkscape-font-specification:Calibri;writing-mode:lr-tb;fill:#000000;fill-opacity:1;fill-rule:nonzero;stroke:none"
               id="text1397"><tspan
                 x="0"
                 y="0"
                 id="tspan1395">e</tspan></text></g></g><g
           id="g1399"><g
             id="g1401"
             clip-path="url(#clipPath1405)"><text
               transform="matrix(1,0,0,-1,433.87,565.42)"
               style="font-variant:normal;font-weight:normal;font-size:11.04px;font-family:Calibri;-inkscape-font-specification:Calibri;writing-mode:lr-tb;fill:#000000;fill-opacity:1;fill-rule:nonzero;stroke:none"
               id="text1409"><tspan
                 x="0 5.2800002"
                 y="0"
                 sodipodi:role="line"
                 id="tspan1407">at</tspan></text></g></g><g
           id="g1411"><g
             id="g1413"
             clip-path="url(#clipPath1417)" /></g></g></g><path
       d="m 389.3,596.35 h 57.75 v -0.5 H 389.3 Z m 56.75,2.75 6,-3 -6,-3 z"
       style="fill:#4472c4;fill-opacity:1;fill-rule:nonzero;stroke:none"
       id="path1419" /><path
       d="m 454.55,556.2 h -65.3 v -0.5 h 65.3 z m -64.3,2.75 -6,-3 6,-3 z"
       style="fill:#4472c4;fill-opacity:1;fill-rule:nonzero;stroke:none"
       id="path1421" /><path
       d="m 452.25,687.38 c 0,2.69 2.18,4.88 4.88,4.88 h 73.09 c 2.7,0 4.88,-2.19 4.88,-4.88 v -19.5 c 0,-2.69 -2.18,-4.87 -4.88,-4.87 h -73.09 c -2.7,0 -4.88,2.18 -4.88,4.87 z"
       style="fill:#4472c4;fill-opacity:1;fill-rule:evenodd;stroke:none"
       id="path1423" /><path
       d="m 452.25,687.38 c 0,2.69 2.18,4.88 4.88,4.88 h 73.09 c 2.7,0 4.88,-2.19 4.88,-4.88 v -19.5 c 0,-2.69 -2.18,-4.87 -4.88,-4.87 h -73.09 c -2.7,0 -4.88,2.18 -4.88,4.87 z"
       style="fill:none;stroke:#2f528f;stroke-width:1;stroke-linecap:butt;stroke-linejoin:miter;stroke-miterlimit:8;stroke-dasharray:none;stroke-opacity:1"
       id="path1425" /><g
       id="g1427"><g
         id="g1429"
         clip-path="url(#clipPath1433)"><g
           id="g1435"><g
             id="g1437"
             clip-path="url(#clipPath1441)"><text
               transform="matrix(1,0,0,-1,481.78,676.18)"
               style="font-variant:normal;font-weight:normal;font-size:11.04px;font-family:Calibri;-inkscape-font-specification:Calibri;writing-mode:lr-tb;fill:#ffffff;fill-opacity:1;fill-rule:nonzero;stroke:none"
               id="text1445"><tspan
                 x="0 5.8843198 8.4235201 14.26368 18.933599"
                 y="0"
                 sodipodi:role="line"
                 id="tspan1443">Clock</tspan></text></g></g><g
           id="g1447"><g
             id="g1449"
             clip-path="url(#clipPath1453)" /></g></g></g><path
       d="m 278.25,687.98 c 0,2.69 2.18,4.88 4.88,4.88 h 73.09 c 2.7,0 4.88,-2.19 4.88,-4.88 v -19.5 c 0,-2.69 -2.18,-4.87 -4.88,-4.87 h -73.09 c -2.7,0 -4.88,2.18 -4.88,4.87 z"
       style="fill:#4472c4;fill-opacity:1;fill-rule:evenodd;stroke:none"
       id="path1455" /><path
       d="m 278.25,687.98 c 0,2.69 2.18,4.88 4.88,4.88 h 73.09 c 2.7,0 4.88,-2.19 4.88,-4.88 v -19.5 c 0,-2.69 -2.18,-4.87 -4.88,-4.87 h -73.09 c -2.7,0 -4.88,2.18 -4.88,4.87 z"
       style="fill:none;stroke:#2f528f;stroke-width:1;stroke-linecap:butt;stroke-linejoin:miter;stroke-miterlimit:8;stroke-dasharray:none;stroke-opacity:1"
       id="path1457" /><g
       id="g1459"><g
         id="g1461"
         clip-path="url(#clipPath1465)"><g
           id="g1467"><g
             id="g1469"
             clip-path="url(#clipPath1473)"><text
               transform="matrix(1,0,0,-1,307.73,676.9)"
               style="font-variant:normal;font-weight:normal;font-size:11.04px;font-family:Calibri;-inkscape-font-specification:Calibri;writing-mode:lr-tb;fill:#ffffff;fill-opacity:1;fill-rule:nonzero;stroke:none"
               id="text1477"><tspan
                 x="0 5.8843198 8.4235201 14.26368 18.933599"
                 y="0"
                 sodipodi:role="line"
                 id="tspan1475">Clock</tspan></text></g></g><g
           id="g1479"><g
             id="g1481"
             clip-path="url(#clipPath1485)" /></g></g></g><path
       d="m 321.25,663.02 v -33.25 h -0.5 v 33.25 z m 2.75,-32.25 -3,-6 -3,6 z"
       style="fill:#4472c4;fill-opacity:1;fill-rule:nonzero;stroke:none"
       id="path1487" /><path
       d="m 496,662.27 v -33.25 h -0.5 v 33.25 z m 2.75,-32.25 -3,-6 -3,6 z"
       style="fill:#4472c4;fill-opacity:1;fill-rule:nonzero;stroke:none"
       id="path1489" /></g></svg>
